{
  "accessors": [
    {
      "bufferView": 1,
      "componentType": 5126,
      "count": 65532,
      "max": [
        2.2203888893127441,
        3.646770715713501,
        2.562481164932251
      ],
      "min": [
        -4.8253602981567383,
        -7.6842160224914551,
        -10.133606910705566
      ],
      "type": "VEC3"
    },
    {
      "bufferView": 1,
      "byteOffset": 786384,
      "componentType": 5126,
      "count": 65532,
      "max": [
        0.99999904632568359,
        0.99997323751449585,
        0.9999958872795105
      ],
      "min": [
        -0.99999463558197021,
        -0.99997419118881226,
        -0.99988001585006714
      ],
      "type": "VEC3"
    },
    {
      "bufferView": 0,
      "componentType": 5125,
      "count": 330120,
      "max": [
        65531
      ],
      "min": [
        0
      ],
      "type": "SCALAR"
    },
    {
      "bufferView": 1,
      "byteOffset": 1572768,
      "componentType": 5126,
      "count": 65533,
      "max": [
        2.4001727104187012,
        3.9533426761627197,
        3.3222465515136719
      ],
      "min": [
        -5.0411605834960938,
        -7.6842160224914551,
        -10.360601425170898
      ],
      "type": "VEC3"
    },
    {
      "bufferView": 1,
      "byteOffset": 2359164,
      "componentType": 5126,
      "count": 65533,
      "max": [
        0.99996650218963623,
        0.99991297721862793,
        0.9999854564666748
      ],
      "min": [
        -0.99999809265136719,
        -0.99996525049209595,
        -0.99996727705001831
      ],
      "type": "VEC3"
    },
    {
      "bufferView": 0,
      "byteOffset": 1320480,
      "componentType": 5125,
      "count": 311253,
      "max": [
        65532
      ],
      "min": [
        0
      ],
      "type": "SCALAR"
    },
    {
      "bufferView": 1,
      "byteOffset": 3145560,
      "componentType": 5126,
      "count": 13942,
      "max": [
        2.3638832569122314,
        3.861994743347168,
        3.1423518657684326
      ],
      "min": [
        -5.0292811393737793,
        -6.6709785461425781,
        -10.360069274902344
      ],
      "type": "VEC3"
    },
    {
      "bufferView": 1,
      "byteOffset": 3312864,
      "componentType": 5126,
      "count": 13942,
      "max": [
        0.9999653697013855,
        0.99990969896316528,
        0.9999421238899231
      ],
      "min": [
        -0.99999809265136719,
        -0.99997091293334961,
        -0.99999499320983887
      ],
      "type": "VEC3"
    },
    {
      "bufferView": 0,
      "byteOffset": 2565492,
      "componentType": 5125,
      "count": 19518,
      "max": [
        13941
      ],
      "min": [
        0
      ],
      "type": "SCALAR"
    }
  ],
  "asset": {
    "extras": {
      "author": "eon (https://sketchfab.com/facerate)",
      "license": "CC-BY-4.0 (http://creativecommons.org/licenses/by/4.0/)",
      "source": "https://sketchfab.com/3d-models/elven-ranger-statue-71aec2d9f7724ae09992435ce8ff7258",
      "title": "Elven ranger statue"
    },
    "generator": "Sketchfab-8.70.0",
    "version": "2.0"
  },
  "bufferViews": [
    {
      "buffer": 0,
      "byteLength": 2643564,
      "byteOffset": 0,
      "name": "floatBufferViews",
      "target": 34963
    },
    {
      "buffer": 0,
      "byteLength": 3480168,
      "byteOffset": 2643564,
      "byteStride": 12,
      "name": "floatBufferViews",
      "target": 34962
    }
  ],
  "buffers": [
    {
      "byteLength": 6123732,
      "uri": "scene.bin"
    }
  ],
  "materials": [
    {
      "doubleSided": true,
      "name": "material_0",
      "pbrMetallicRoughness": {
        "baseColorFactor": [
          1,
          1,
          1,
          1
        ],
        "metallicFactor": 0,
        "roughnessFactor": 0.59999999999999998
      }
    }
  ],
  "meshes": [
    {
      "primitives": [
        {
          "attributes": {
            "NORMAL": 1,
            "POSITION": 0
          },
          "indices": 2,
          "material": 0,
          "mode": 4
        }
      ]
    },
    {
      "primitives": [
        {
          "attributes": {
            "NORMAL": 4,
            "POSITION": 3
          },
          "indices": 5,
          "material": 0,
          "mode": 4
        }
      ]
    },
    {
      "primitives": [
        {
          "attributes": {
            "NORMAL": 7,
            "POSITION": 6
          },
          "indices": 8,
          "material": 0,
          "mode": 4
        }
      ]
    }
  ],
  "nodes": [
    {
      "children": [
        1
      ],
      "name": "RootNode (gltf orientation matrix)",
      "rotation": [
        -0.70710678118654746,
        -0,
        -0,
        0.70710678118654757
      ]
    },
    {
      "children": [
        2
      ],
      "matrix": [
        1,
        8.0068364242718248e-33,
        -1.6081226229577292e-16,
        0,
        1.7853747624282703e-32,
        1,
        1.6081226229577292e-16,
        0,
        1.6081226229577292e-16,
        -1.6081226229577292e-16,
        1,
        0,
        6.6613381477509392e-16,
        -6.6613381477509392e-16,
        0,
        1
      ],
      "name": "RootNode (model correction matrix)"
    },
    {
      "children": [
        3,
        4,
        5
      ],
      "name": "elf.OBJ.cleaner.materialmerger.gles"
    },
    {
      "mesh": 0,
      "name": ""
    },
    {
      "mesh": 1,
      "name": ""
    },
    {
      "mesh": 2,
      "name": ""
    }
  ],
  "scene": 0,
  "scenes": [
    {
      "name": "OSG_Scene",
      "nodes": [
        0
      ]
    }
  ]
}

