{
  "accessors": [
    {
      "bufferView": 2,
      "componentType": 5126,
      "count": 1196,
      "max": [
        497.39688110351562,
        40.806949615478516,
        26.596954345703125
      ],
      "min": [
        -50.359176635742188,
        -53.516777038574219,
        -327.75576782226562
      ],
      "type": "VEC3"
    },
    {
      "bufferView": 2,
      "byteOffset": 14352,
      "componentType": 5126,
      "count": 1196,
      "max": [
        0.99806445837020874,
        0.98271554708480835,
        1
      ],
      "min": [
        -0.99708187580108643,
        -0.9827151894569397,
        -1
      ],
      "type": "VEC3"
    },
    {
      "bufferView": 3,
      "componentType": 5126,
      "count": 1196,
      "max": [
        0.99893999099731445,
        1,
        0.98312783241271973,
        1
      ],
      "min": [
        -0.99846357107162476,
        -1,
        -0.98312783241271973,
        -1
      ],
      "type": "VEC4"
    },
    {
      "bufferView": 1,
      "componentType": 5126,
      "count": 1196,
      "max": [
        0.979056715965271,
        0.97714674472808838
      ],
      "min": [
        0.00097891688346862793,
        0.0010383492335677147
      ],
      "type": "VEC2"
    },
    {
      "bufferView": 0,
      "componentType": 5125,
      "count": 4836,
      "max": [
        1195
      ],
      "min": [
        0
      ],
      "type": "SCALAR"
    },
    {
      "bufferView": 2,
      "byteOffset": 28704,
      "componentType": 5126,
      "count": 4321,
      "max": [
        351.61032104492188,
        144.63029479980469,
        178.92782592773438
      ],
      "min": [
        -358.69497680664062,
        -49.343402862548828,
        -174.30712890625
      ],
      "type": "VEC3"
    },
    {
      "bufferView": 2,
      "byteOffset": 80556,
      "componentType": 5126,
      "count": 4321,
      "max": [
        1,
        1,
        1
      ],
      "min": [
        -1,
        -1,
        -1
      ],
      "type": "VEC3"
    },
    {
      "bufferView": 3,
      "byteOffset": 19136,
      "componentType": 5126,
      "count": 4321,
      "max": [
        1,
        0.99999839067459106,
        1,
        1
      ],
      "min": [
        -1,
        -1,
        -1,
        -1
      ],
      "type": "VEC4"
    },
    {
      "bufferView": 1,
      "byteOffset": 9568,
      "componentType": 5126,
      "count": 4321,
      "max": [
        0.99788612127304077,
        0.99690783023834229
      ],
      "min": [
        0.0027469142805784941,
        0.0026793377473950386
      ],
      "type": "VEC2"
    },
    {
      "bufferView": 0,
      "byteOffset": 19344,
      "componentType": 5125,
      "count": 17640,
      "max": [
        4320
      ],
      "min": [
        0
      ],
      "type": "SCALAR"
    },
    {
      "bufferView": 2,
      "byteOffset": 132408,
      "componentType": 5126,
      "count": 4,
      "max": [
        358.5,
        162,
        0
      ],
      "min": [
        -358.5,
        -162,
        0
      ],
      "type": "VEC3"
    },
    {
      "bufferView": 2,
      "byteOffset": 132456,
      "componentType": 5126,
      "count": 4,
      "max": [
        0,
        0,
        1
      ],
      "min": [
        0,
        0,
        1
      ],
      "type": "VEC3"
    },
    {
      "bufferView": 3,
      "byteOffset": 88272,
      "componentType": 5126,
      "count": 4,
      "max": [
        0,
        1,
        0,
        1
      ],
      "min": [
        -2.6380575945950113e-07,
        1,
        0,
        1
      ],
      "type": "VEC4"
    },
    {
      "bufferView": 1,
      "byteOffset": 44136,
      "componentType": 5126,
      "count": 4,
      "max": [
        0.80102205276489258,
        1
      ],
      "min": [
        0.19897794723510742,
        -5.9604644775390625e-08
      ],
      "type": "VEC2"
    },
    {
      "bufferView": 0,
      "byteOffset": 89904,
      "componentType": 5125,
      "count": 6,
      "max": [
        3
      ],
      "min": [
        0
      ],
      "type": "SCALAR"
    },
    {
      "bufferView": 2,
      "byteOffset": 132504,
      "componentType": 5126,
      "count": 4495,
      "max": [
        334.29486083984375,
        139.29910278320312,
        151.73574829101562
      ],
      "min": [
        -190.56231689453125,
        -36.5467529296875,
        -147.11505126953125
      ],
      "type": "VEC3"
    },
    {
      "bufferView": 2,
      "byteOffset": 186444,
      "componentType": 5126,
      "count": 4495,
      "max": [
        1,
        1,
        1
      ],
      "min": [
        -1,
        -1,
        -1
      ],
      "type": "VEC3"
    },
    {
      "bufferView": 3,
      "byteOffset": 88336,
      "componentType": 5126,
      "count": 4495,
      "max": [
        1,
        1,
        1,
        1
      ],
      "min": [
        -1,
        -1,
        -1,
        -1
      ],
      "type": "VEC4"
    },
    {
      "bufferView": 1,
      "byteOffset": 44168,
      "componentType": 5126,
      "count": 4495,
      "max": [
        0.98938655853271484,
        0.98489785194396973
      ],
      "min": [
        0.010359100997447968,
        0.0081012528389692307
      ],
      "type": "VEC2"
    },
    {
      "bufferView": 0,
      "byteOffset": 89928,
      "componentType": 5125,
      "count": 15858,
      "max": [
        4494
      ],
      "min": [
        0
      ],
      "type": "SCALAR"
    },
    {
      "bufferView": 2,
      "byteOffset": 240384,
      "componentType": 5126,
      "count": 82,
      "max": [
        334.296875,
        139.30174255371094,
        151.73574829101562
      ],
      "min": [
        -159.43849182128906,
        67.897430419921875,
        -147.11505126953125
      ],
      "type": "VEC3"
    },
    {
      "bufferView": 2,
      "byteOffset": 241368,
      "componentType": 5126,
      "count": 82,
      "max": [
        0.42659154534339905,
        0.91519474983215332,
        0.83992546796798706
      ],
      "min": [
        -0.51317828893661499,
        0.54269945621490479,
        -0.83992552757263184
      ],
      "type": "VEC3"
    },
    {
      "bufferView": 3,
      "byteOffset": 160256,
      "componentType": 5126,
      "count": 82,
      "max": [
        0.99999868869781494,
        0.20288470387458801,
        0.99999767541885376,
        1
      ],
      "min": [
        -0.23974372446537018,
        -0.86417979001998901,
        -0.99999833106994629,
        -1
      ],
      "type": "VEC4"
    },
    {
      "bufferView": 1,
      "byteOffset": 80128,
      "componentType": 5126,
      "count": 82,
      "max": [
        0.78202652931213379,
        0.89122569561004639
      ],
      "min": [
        0.10502056777477264,
        0.15662094950675964
      ],
      "type": "VEC2"
    },
    {
      "bufferView": 0,
      "byteOffset": 153360,
      "componentType": 5125,
      "count": 252,
      "max": [
        81
      ],
      "min": [
        0
      ],
      "type": "SCALAR"
    }
  ],
  "asset": {
    "extras": {
      "author": "quaz30 (https://sketchfab.com/quaz30)",
      "license": "SKETCHFAB Standard (https://sketchfab.com/licenses)",
      "source": "https://sketchfab.com/3d-models/futuristic-1980s-hatchback-3dea333477f0401096a52e063d23b7e2",
      "title": "Futuristic 1980's Hatchback"
    },
    "generator": "Sketchfab-4.81.0",
    "version": "2.0"
  },
  "bufferViews": [
    {
      "buffer": 0,
      "byteLength": 154368,
      "byteOffset": 0,
      "name": "floatBufferViews",
      "target": 34963
    },
    {
      "buffer": 0,
      "byteLength": 80784,
      "byteOffset": 154368,
      "byteStride": 8,
      "name": "floatBufferViews",
      "target": 34962
    },
    {
      "buffer": 0,
      "byteLength": 242352,
      "byteOffset": 235152,
      "byteStride": 12,
      "name": "floatBufferViews",
      "target": 34962
    },
    {
      "buffer": 0,
      "byteLength": 161568,
      "byteOffset": 477504,
      "byteStride": 16,
      "name": "floatBufferViews",
      "target": 34962
    }
  ],
  "buffers": [
    {
      "byteLength": 639072,
      "uri": "scene.bin"
    }
  ],
  "images": [
    {
      "uri": "textures/windows_normal.png"
    },
    {
      "uri": "textures/windows_baseColor.png"
    },
    {
      "uri": "textures/windows_metallicRoughness.png"
    },
    {
      "uri": "textures/tires_metallicRoughness.png"
    },
    {
      "uri": "textures/tires_normal.png"
    },
    {
      "uri": "textures/tires_baseColor.jpeg"
    },
    {
      "uri": "textures/citroen_normal.png"
    },
    {
      "uri": "textures/citroen_baseColor.jpeg"
    },
    {
      "uri": "textures/citroen_metallicRoughness.png"
    },
    {
      "uri": "textures/citroen_emissive.jpeg"
    },
    {
      "uri": "textures/interior_normal.png"
    },
    {
      "uri": "textures/interior_baseColor.png"
    },
    {
      "uri": "textures/interior_metallicRoughness.png"
    },
    {
      "uri": "textures/interior_emissive.png"
    },
    {
      "uri": "textures/plane_normal.png"
    },
    {
      "uri": "textures/plane_baseColor.png"
    },
    {
      "uri": "textures/plane_metallicRoughness.png"
    }
  ],
  "materials": [
    {
      "doubleSided": true,
      "name": "tires",
      "normalTexture": {
        "index": 4,
        "scale": 1,
        "texCoord": 0
      },
      "occlusionTexture": {
        "index": 3,
        "strength": 1,
        "texCoord": 0
      },
      "pbrMetallicRoughness": {
        "baseColorFactor": [
          1,
          1,
          1,
          1
        ],
        "baseColorTexture": {
          "index": 5,
          "texCoord": 0
        },
        "metallicFactor": 1,
        "metallicRoughnessTexture": {
          "index": 3,
          "texCoord": 0
        },
        "roughnessFactor": 1
      }
    },
    {
      "doubleSided": true,
      "emissiveFactor": [
        1,
        1,
        1
      ],
      "emissiveTexture": {
        "index": 9,
        "texCoord": 0
      },
      "name": "citroen",
      "normalTexture": {
        "index": 6,
        "scale": 1,
        "texCoord": 0
      },
      "occlusionTexture": {
        "index": 8,
        "strength": 1,
        "texCoord": 0
      },
      "pbrMetallicRoughness": {
        "baseColorFactor": [
          1,
          1,
          1,
          1
        ],
        "baseColorTexture": {
          "index": 7,
          "texCoord": 0
        },
        "metallicFactor": 1,
        "metallicRoughnessTexture": {
          "index": 8,
          "texCoord": 0
        },
        "roughnessFactor": 1
      }
    },
    {
      "alphaMode": "BLEND",
      "doubleSided": true,
      "name": "plane",
      "normalTexture": {
        "index": 14,
        "scale": 1,
        "texCoord": 0
      },
      "occlusionTexture": {
        "index": 16,
        "strength": 1,
        "texCoord": 0
      },
      "pbrMetallicRoughness": {
        "baseColorFactor": [
          1,
          1,
          1,
          1
        ],
        "baseColorTexture": {
          "index": 15,
          "texCoord": 0
        },
        "metallicFactor": 1,
        "metallicRoughnessTexture": {
          "index": 16,
          "texCoord": 0
        },
        "roughnessFactor": 1
      }
    },
    {
      "doubleSided": true,
      "emissiveFactor": [
        1,
        1,
        1
      ],
      "emissiveTexture": {
        "index": 13,
        "texCoord": 0
      },
      "name": "interior",
      "normalTexture": {
        "index": 10,
        "scale": 1,
        "texCoord": 0
      },
      "occlusionTexture": {
        "index": 12,
        "strength": 1,
        "texCoord": 0
      },
      "pbrMetallicRoughness": {
        "baseColorFactor": [
          1,
          1,
          1,
          1
        ],
        "baseColorTexture": {
          "index": 11,
          "texCoord": 0
        },
        "metallicFactor": 1,
        "metallicRoughnessTexture": {
          "index": 12,
          "texCoord": 0
        },
        "roughnessFactor": 1
      }
    },
    {
      "alphaMode": "BLEND",
      "doubleSided": true,
      "name": "windows",
      "normalTexture": {
        "index": 0,
        "scale": 1,
        "texCoord": 0
      },
      "occlusionTexture": {
        "index": 2,
        "strength": 1,
        "texCoord": 0
      },
      "pbrMetallicRoughness": {
        "baseColorFactor": [
          1,
          1,
          1,
          1
        ],
        "baseColorTexture": {
          "index": 1,
          "texCoord": 0
        },
        "metallicFactor": 1,
        "metallicRoughnessTexture": {
          "index": 2,
          "texCoord": 0
        },
        "roughnessFactor": 1
      }
    }
  ],
  "meshes": [
    {
      "name": "Cylinder001_tires_0",
      "primitives": [
        {
          "attributes": {
            "NORMAL": 1,
            "POSITION": 0,
            "TANGENT": 2,
            "TEXCOORD_0": 3
          },
          "indices": 4,
          "material": 0,
          "mode": 4
        }
      ]
    },
    {
      "name": "citroenbxlowpoly_citroen_0",
      "primitives": [
        {
          "attributes": {
            "NORMAL": 6,
            "POSITION": 5,
            "TANGENT": 7,
            "TEXCOORD_0": 8
          },
          "indices": 9,
          "material": 1,
          "mode": 4
        }
      ]
    },
    {
      "name": "Plane004_plane_0",
      "primitives": [
        {
          "attributes": {
            "NORMAL": 11,
            "POSITION": 10,
            "TANGENT": 12,
            "TEXCOORD_0": 13
          },
          "indices": 14,
          "material": 2,
          "mode": 4
        }
      ]
    },
    {
      "name": "Object008_interior_0",
      "primitives": [
        {
          "attributes": {
            "NORMAL": 16,
            "POSITION": 15,
            "TANGENT": 17,
            "TEXCOORD_0": 18
          },
          "indices": 19,
          "material": 3,
          "mode": 4
        }
      ]
    },
    {
      "name": "windows_windows_0",
      "primitives": [
        {
          "attributes": {
            "NORMAL": 21,
            "POSITION": 20,
            "TANGENT": 22,
            "TEXCOORD_0": 23
          },
          "indices": 24,
          "material": 4,
          "mode": 4
        }
      ]
    }
  ],
  "nodes": [
    {
      "children": [
        1
      ],
      "name": "RootNode (gltf orientation matrix)",
      "rotation": [
        -0.70710678118654746,
        -0,
        -0,
        0.70710678118654757
      ]
    },
    {
      "children": [
        2
      ],
      "name": "RootNode (model correction matrix)"
    },
    {
      "children": [
        3
      ],
      "matrix": [
        1,
        0,
        0,
        0,
        0,
        0,
        1,
        0,
        0,
        -1,
        0,
        0,
        0,
        0,
        0,
        1
      ],
      "name": "248b3c2399444ea79f182c8da28f7371.fbx"
    },
    {
      "children": [
        4,
        7,
        10,
        12,
        15
      ],
      "name": "RootNode"
    },
    {
      "children": [
        5
      ],
      "matrix": [
        1.6292068460987963e-07,
        6.6174449004242214e-24,
        0.99999999999998668,
        0,
        -4.3711386449148151e-08,
        0.999999999999999,
        7.1214890014876298e-15,
        0,
        -0.90000200271605169,
        -3.9340335345729704e-08,
        1.4662894243276397e-07,
        0,
        -2.7285137176513672,
        -68.273239135742188,
        -223.20158386230469,
        1
      ],
      "name": "Cylinder001"
    },
    {
      "children": [
        6
      ],
      "matrix": [
        1,
        0,
        -0,
        0,
        0,
        1,
        0,
        0,
        0,
        0,
        1,
        0,
        2.4452052457490936e-05,
        6.5604504015936982e-06,
        150.08561706542969,
        1
      ],
      "name": ""
    },
    {
      "mesh": 0,
      "name": "Cylinder001_tires_0"
    },
    {
      "children": [
        8
      ],
      "matrix": [
        1.6292068460987963e-07,
        0,
        0.99999999999998668,
        0,
        -4.3711388225504991e-08,
        0.999999999999999,
        7.1214892959639279e-15,
        0,
        -0.99999999999998579,
        -4.3711388225505573e-08,
        1.6292068460987963e-07,
        0,
        -2.3103458881378174,
        -51.654777526855469,
        5,
        1
      ],
      "name": "citroenbxlowpoly"
    },
    {
      "children": [
        9
      ],
      "matrix": [
        1,
        0,
        -0,
        0,
        0,
        1,
        0,
        0,
        0,
        0,
        1,
        0,
        -3.7640313621523092e-07,
        -1.009884229574709e-07,
        -2.3103458881378174,
        1
      ],
      "name": ""
    },
    {
      "mesh": 1,
      "name": "citroenbxlowpoly_citroen_0"
    },
    {
      "children": [
        11
      ],
      "matrix": [
        2.7325870669790509e-07,
        -9.3106073320429507e-17,
        1.6772499084472432,
        0,
        2.2346014976501167,
        4.9618120671061005e-16,
        -3.6406281016900978e-07,
        0,
        -2.7931821996128852e-16,
        1.6772499084472656,
        1.8621214664085901e-16,
        0,
        1.1464113892131061e-13,
        -121.83376312255859,
        5.0111231587444635e-21,
        1
      ],
      "name": "Plane004"
    },
    {
      "mesh": 2,
      "name": "Plane004_plane_0"
    },
    {
      "children": [
        13
      ],
      "matrix": [
        1.6292068449885733e-07,
        -1.3234889800848443e-23,
        0.99999999999998668,
        0,
        -1.6292068488171135e-07,
        0.99999999999998668,
        2.6543149516178714e-14,
        0,
        -0.99999999999997335,
        -1.6292068488171352e-07,
        1.6292068449885733e-07,
        0,
        -2.3103458881378174,
        -51.654777526855469,
        5,
        1
      ],
      "name": "Object008"
    },
    {
      "children": [
        14
      ],
      "matrix": [
        1,
        0,
        -0,
        0,
        0,
        1,
        0,
        0,
        0,
        0,
        1,
        0,
        -3.7640313621523092e-07,
        -1.009884229574709e-07,
        -2.3103458881378174,
        1
      ],
      "name": ""
    },
    {
      "mesh": 3,
      "name": "Object008_interior_0"
    },
    {
      "children": [
        16
      ],
      "matrix": [
        1.6292068449885733e-07,
        -1.3234889800848443e-23,
        0.99999999999998668,
        0,
        -1.6292068488171135e-07,
        0.99999999999998668,
        2.6543149516178714e-14,
        0,
        -0.99999999999997335,
        -1.6292068488171352e-07,
        1.6292068449885733e-07,
        0,
        -2.3103458881378174,
        -51.654777526855469,
        5,
        1
      ],
      "name": "windows"
    },
    {
      "children": [
        17
      ],
      "matrix": [
        1,
        0,
        -0,
        0,
        0,
        1,
        0,
        0,
        0,
        0,
        1,
        0,
        -3.7640313621523092e-07,
        -1.009884229574709e-07,
        -2.3103458881378174,
        1
      ],
      "name": ""
    },
    {
      "mesh": 4,
      "name": "windows_windows_0"
    }
  ],
  "samplers": [
    {
      "magFilter": 9729,
      "minFilter": 9987,
      "wrapS": 10497,
      "wrapT": 10497
    }
  ],
  "scene": 0,
  "scenes": [
    {
      "name": "OSG_Scene",
      "nodes": [
        0
      ]
    }
  ],
  "textures": [
    {
      "sampler": 0,
      "source": 0
    },
    {
      "sampler": 0,
      "source": 1
    },
    {
      "sampler": 0,
      "source": 2
    },
    {
      "sampler": 0,
      "source": 3
    },
    {
      "sampler": 0,
      "source": 4
    },
    {
      "sampler": 0,
      "source": 5
    },
    {
      "sampler": 0,
      "source": 6
    },
    {
      "sampler": 0,
      "source": 7
    },
    {
      "sampler": 0,
      "source": 8
    },
    {
      "sampler": 0,
      "source": 9
    },
    {
      "sampler": 0,
      "source": 10
    },
    {
      "sampler": 0,
      "source": 11
    },
    {
      "sampler": 0,
      "source": 12
    },
    {
      "sampler": 0,
      "source": 13
    },
    {
      "sampler": 0,
      "source": 14
    },
    {
      "sampler": 0,
      "source": 15
    },
    {
      "sampler": 0,
      "source": 16
    }
  ]
}

